<svg id="Capa_1" data-name="Capa 1" xmlns="http://www.w3.org/2000/svg" xmlns:xlink="http://www.w3.org/1999/xlink" viewBox="0 0 153.93 131.11"><defs><style>.cls-1{fill:#00a9b9;}.cls-2{fill:#292f3c;}.cls-3{fill:url(#linear-gradient);}.cls-4{fill:url(#linear-gradient-2);}.cls-5{fill:url(#linear-gradient-3);}.cls-6{fill:url(#linear-gradient-4);}.cls-7{fill:url(#linear-gradient-5);}.cls-8,.cls-9{fill:#002d74;}.cls-9{font-size:9px;}.cls-11,.cls-9{font-family:MyriadPro-Regular, Myriad Pro;}.cls-10{letter-spacing:0em;}.cls-11{font-size:11px;fill:#808284;}.cls-12{letter-spacing:-0.01em;}.cls-13{letter-spacing:0em;}.cls-14{letter-spacing:-0.01em;}.cls-15{letter-spacing:0em;}.cls-16{letter-spacing:0.01em;}.cls-17{letter-spacing:0em;}</style><linearGradient id="linear-gradient" x1="39.46" y1="14.28" x2="52.29" y2="14.28" gradientUnits="userSpaceOnUse"><stop offset="0" stop-color="#0eb79a"/><stop offset="1" stop-color="#00b2b2"/></linearGradient><linearGradient id="linear-gradient-2" x1="37.85" y1="23.59" x2="48.77" y2="23.59" xlink:href="#linear-gradient"/><linearGradient id="linear-gradient-3" x1="44.09" y1="27.51" x2="98.53" y2="27.51" xlink:href="#linear-gradient"/><linearGradient id="linear-gradient-4" x1="47.99" y1="41.32" x2="57.7" y2="41.32" xlink:href="#linear-gradient"/><linearGradient id="linear-gradient-5" x1="29.94" y1="23.59" x2="35.13" y2="23.59" xlink:href="#linear-gradient"/></defs><path class="cls-1" d="M15.35,99.93a.29.29,0,0,1-.22-.09.29.29,0,0,1-.08-.21V92.42a.28.28,0,0,1,.3-.3h4.81a.32.32,0,0,1,.21.08.29.29,0,0,1,.09.22.31.31,0,0,1-.3.3H15.65v3H19a.29.29,0,0,1,.21.08.29.29,0,0,1,.09.22.31.31,0,0,1-.09.22.26.26,0,0,1-.21.09H15.65v3.3a.31.31,0,0,1-.3.3Z" transform="translate(-0.66 -1.37)"/><path class="cls-1" d="M24.31,100a2.75,2.75,0,0,1-1.43-.37,2.53,2.53,0,0,1-1-1,2.74,2.74,0,0,1-.37-1.42,2.81,2.81,0,0,1,.37-1.44,2.67,2.67,0,0,1,1-1,2.82,2.82,0,0,1,3.86,1,2.9,2.9,0,0,1,.36,1.44l-.25.4a2.3,2.3,0,0,1-.33,1.22,2.48,2.48,0,0,1-.91.85A2.64,2.64,0,0,1,24.31,100Zm0-.56a2.15,2.15,0,0,0,1.13-.3,2.07,2.07,0,0,0,.78-.8,2.23,2.23,0,0,0,.28-1.13,2.3,2.3,0,0,0-.28-1.15,2.25,2.25,0,0,0-3-.8,2.24,2.24,0,0,0-.79.8,2.31,2.31,0,0,0-.29,1.15,2.24,2.24,0,0,0,.29,1.13,2.09,2.09,0,0,0,.79.8A2.13,2.13,0,0,0,24.31,99.43Zm-.15-5.78a.29.29,0,0,1-.22-.09.31.31,0,0,1-.09-.22.29.29,0,0,1,.07-.2l1.23-1.23a.29.29,0,0,1,.22-.09.33.33,0,0,1,.22.08.3.3,0,0,1,.09.23.36.36,0,0,1,0,.1.34.34,0,0,1-.07.11l-1.23,1.23A.28.28,0,0,1,24.16,93.65Zm2.65,6.28a.28.28,0,0,1-.22-.09.26.26,0,0,1-.09-.21V97.8l.19-.6h.41v2.43a.29.29,0,0,1-.08.21A.26.26,0,0,1,26.81,99.93Z" transform="translate(-0.66 -1.37)"/><path class="cls-1" d="M31,100a2.6,2.6,0,0,1-1.39-.37,2.66,2.66,0,0,1-1-1,2.83,2.83,0,0,1-.36-1.42,3,3,0,0,1,.33-1.43,2.58,2.58,0,0,1,.91-1,2.48,2.48,0,0,1,1.33-.36,2.78,2.78,0,0,1,1.17.24,2.44,2.44,0,0,1,.92.75.21.21,0,0,1,.06.21.25.25,0,0,1-.13.18.24.24,0,0,1-.2,0,.29.29,0,0,1-.19-.11A2,2,0,0,0,30.87,95a1.78,1.78,0,0,0-1,.29,1.89,1.89,0,0,0-.69.79,2.47,2.47,0,0,0-.25,1.15,2.33,2.33,0,0,0,.27,1.13A2.05,2.05,0,0,0,31,99.43a2.5,2.5,0,0,0,.78-.12,1.67,1.67,0,0,0,.63-.37.4.4,0,0,1,.2-.09.22.22,0,0,1,.19.07.31.31,0,0,1,.11.2.25.25,0,0,1-.09.2A2.56,2.56,0,0,1,31,100Z" transform="translate(-0.66 -1.37)"/><path class="cls-1" d="M35,93.31a.45.45,0,0,1-.32-.14.45.45,0,0,1-.14-.33.41.41,0,0,1,.15-.35.52.52,0,0,1,.32-.11.54.54,0,0,1,.32.11.44.44,0,0,1,.14.35.44.44,0,0,1-.13.33A.46.46,0,0,1,35,93.31Zm0,6.62a.27.27,0,0,1-.21-.09.26.26,0,0,1-.09-.21V94.76a.29.29,0,0,1,.3-.3.28.28,0,0,1,.3.3v4.87a.25.25,0,0,1-.08.21A.27.27,0,0,1,35,99.93Z" transform="translate(-0.66 -1.37)"/><path class="cls-1" d="M38.43,99.93a1.13,1.13,0,0,1-.67-.21,1.34,1.34,0,0,1-.46-.58,2.09,2.09,0,0,1-.17-.86V92.42a.29.29,0,0,1,.3-.3.28.28,0,0,1,.3.3v5.86a1.3,1.3,0,0,0,.2.75.58.58,0,0,0,.5.3h.25a.22.22,0,0,1,.18.08.31.31,0,0,1,.07.22.25.25,0,0,1-.08.21.27.27,0,0,1-.22.09Z" transform="translate(-0.66 -1.37)"/><path class="cls-1" d="M39.94,101.48a.22.22,0,0,1-.14,0,.17.17,0,0,1,0-.12.4.4,0,0,1,.08-.22,1.34,1.34,0,0,0,.16-.23.47.47,0,0,0,.08-.29.76.76,0,0,0-.06-.32,1.12,1.12,0,0,0-.16-.22,1.37,1.37,0,0,1-.15-.21.54.54,0,0,1-.07-.27.47.47,0,0,1,.16-.37.59.59,0,0,1,.35-.12.55.55,0,0,1,.44.21,1,1,0,0,1,.18.62,2.48,2.48,0,0,1-.06.54,2.13,2.13,0,0,1-.18.52,1.11,1.11,0,0,1-.26.38A.44.44,0,0,1,39.94,101.48Z" transform="translate(-0.66 -1.37)"/><path class="cls-1" d="M45.4,99.93a.29.29,0,0,1-.22-.09.25.25,0,0,1-.08-.21V94.76a.26.26,0,0,1,.08-.22.34.34,0,0,1,.44,0,.29.29,0,0,1,.08.22v4.87a.29.29,0,0,1-.08.21A.29.29,0,0,1,45.4,99.93Zm-.11-3.34a2.64,2.64,0,0,1,.36-1.14,2.06,2.06,0,0,1,.75-.77,1.86,1.86,0,0,1,1-.28,1.55,1.55,0,0,1,.59.09.25.25,0,0,1,.16.32A.21.21,0,0,1,48,95a.61.61,0,0,1-.27,0l-.34,0a1.83,1.83,0,0,0-.89.21,1.53,1.53,0,0,0-.61.57,1.57,1.57,0,0,0-.22.84Z" transform="translate(-0.66 -1.37)"/><path class="cls-1" d="M51.58,100a2.76,2.76,0,0,1-1.44-.37,2.6,2.6,0,0,1-1-1,2.83,2.83,0,0,1-.36-1.42,2.9,2.9,0,0,1,.36-1.44,2.74,2.74,0,0,1,1-1,3,3,0,0,1,2.87,0,2.71,2.71,0,0,1,1,1,2.81,2.81,0,0,1,.37,1.44l-.25.4a2.22,2.22,0,0,1-.34,1.22,2.37,2.37,0,0,1-.9.85A2.66,2.66,0,0,1,51.58,100Zm0-.56a2.11,2.11,0,0,0,1.12-.3,2.07,2.07,0,0,0,.78-.8,2.24,2.24,0,0,0,.29-1.13,2.31,2.31,0,0,0-.29-1.15,2.23,2.23,0,0,0-3-.8,2.16,2.16,0,0,0-.79.8,2.21,2.21,0,0,0-.29,1.15,2.14,2.14,0,0,0,.29,1.13,2,2,0,0,0,.79.8A2.11,2.11,0,0,0,51.58,99.43Zm-.15-5.78a.29.29,0,0,1-.22-.09.31.31,0,0,1-.09-.22.29.29,0,0,1,.07-.2l1.23-1.23a.29.29,0,0,1,.22-.09.35.35,0,0,1,.22.08.3.3,0,0,1,.09.23.36.36,0,0,1,0,.1l-.07.11-1.23,1.23A.3.3,0,0,1,51.43,93.65Zm2.65,6.28a.3.3,0,0,1-.23-.09.29.29,0,0,1-.08-.21V97.8l.19-.6h.41v2.43a.29.29,0,0,1-.29.3Z" transform="translate(-0.66 -1.37)"/><path class="cls-1" d="M56.17,102.27a.29.29,0,0,1-.22-.09.29.29,0,0,1-.08-.21V97.14a2.85,2.85,0,0,1,.38-1.41,2.74,2.74,0,0,1,1-1,2.79,2.79,0,0,1,1.41-.36,2.84,2.84,0,0,1,1.43.36,2.67,2.67,0,0,1,1,1,2.81,2.81,0,0,1,.37,1.44,2.74,2.74,0,0,1-.37,1.42,2.53,2.53,0,0,1-1,1,2.75,2.75,0,0,1-1.43.37,2.69,2.69,0,0,1-1.3-.31,2.3,2.3,0,0,1-.89-.83V102a.29.29,0,0,1-.08.21A.29.29,0,0,1,56.17,102.27Zm2.49-2.84a2.11,2.11,0,0,0,1.12-.3,2.17,2.17,0,0,0,.79-.8,2.24,2.24,0,0,0,.29-1.13,2.2,2.2,0,0,0-1.08-2,2.31,2.31,0,0,0-2.24,0,2.16,2.16,0,0,0-.79.8,2.3,2.3,0,0,0-.28,1.15,2.23,2.23,0,0,0,.28,1.13,2,2,0,0,0,.79.8A2.11,2.11,0,0,0,58.66,99.43Z" transform="translate(-0.66 -1.37)"/><path class="cls-1" d="M63.45,93.31a.45.45,0,0,1-.33-.14.44.44,0,0,1-.13-.33.44.44,0,0,1,.14-.35.57.57,0,0,1,.33-.11.51.51,0,0,1,.31.11.41.41,0,0,1,.15.35.48.48,0,0,1-.47.47Zm0,6.62a.29.29,0,0,1-.22-.09.29.29,0,0,1-.08-.21V94.76a.29.29,0,0,1,.08-.22.29.29,0,0,1,.22-.08.27.27,0,0,1,.22.08.29.29,0,0,1,.08.22v4.87a.29.29,0,0,1-.08.21A.28.28,0,0,1,63.46,99.93Z" transform="translate(-0.66 -1.37)"/><path class="cls-1" d="M68.26,100a2.81,2.81,0,0,1-1.44-.37,2.67,2.67,0,0,1-1-1,2.82,2.82,0,0,1,1-3.86,2.9,2.9,0,0,1,1.44-.36,2.62,2.62,0,0,1,1.29.31,2.19,2.19,0,0,1,.9.83V92.42a.27.27,0,0,1,.09-.22.25.25,0,0,1,.21-.08.27.27,0,0,1,.22.08.29.29,0,0,1,.08.22v4.83A2.74,2.74,0,0,1,68.26,100Zm0-.56a2.18,2.18,0,0,0,1.91-1.1,2.46,2.46,0,0,0,0-2.28,2.24,2.24,0,0,0-.79-.8A2.2,2.2,0,0,0,68.26,95a2.26,2.26,0,0,0-1.91,3.37,2.09,2.09,0,0,0,.79.8A2.13,2.13,0,0,0,68.26,99.43Z" transform="translate(-0.66 -1.37)"/><path class="cls-1" d="M75.35,100a2.75,2.75,0,0,1-1.43-.37,2.53,2.53,0,0,1-1-1,2.74,2.74,0,0,1-.37-1.42,2.81,2.81,0,0,1,.37-1.44,2.67,2.67,0,0,1,1-1,2.82,2.82,0,0,1,3.86,1,2.9,2.9,0,0,1,.36,1.44,2.83,2.83,0,0,1-.36,1.42,2.67,2.67,0,0,1-1,1A2.75,2.75,0,0,1,75.35,100Zm0-.56a2.15,2.15,0,0,0,1.13-.3,2.07,2.07,0,0,0,.78-.8,2.24,2.24,0,0,0,.28-1.14,2.29,2.29,0,0,0-.28-1.14,2.25,2.25,0,0,0-3-.8,2.24,2.24,0,0,0-.79.8,2.31,2.31,0,0,0-.29,1.15,2.24,2.24,0,0,0,.29,1.13,2.09,2.09,0,0,0,.79.8A2.13,2.13,0,0,0,75.35,99.43Z" transform="translate(-0.66 -1.37)"/><path class="cls-1" d="M79.55,101.48a.22.22,0,0,1-.14,0,.17.17,0,0,1,0-.12.4.4,0,0,1,.08-.22,1.34,1.34,0,0,0,.16-.23.47.47,0,0,0,.08-.29.76.76,0,0,0-.06-.32,1.77,1.77,0,0,0-.16-.22,1.37,1.37,0,0,1-.15-.21.45.45,0,0,1-.07-.27.47.47,0,0,1,.16-.37.59.59,0,0,1,.35-.12.55.55,0,0,1,.44.21,1,1,0,0,1,.18.62,2.48,2.48,0,0,1-.06.54,2.65,2.65,0,0,1-.18.52,1.11,1.11,0,0,1-.26.38A.44.44,0,0,1,79.55,101.48Z" transform="translate(-0.66 -1.37)"/><path class="cls-1" d="M85.19,93.31a.45.45,0,0,1-.32-.14.45.45,0,0,1-.14-.33.41.41,0,0,1,.15-.35.52.52,0,0,1,.64,0,.41.41,0,0,1,.14.35.44.44,0,0,1-.13.33A.46.46,0,0,1,85.19,93.31Zm0,6.62a.27.27,0,0,1-.21-.09.26.26,0,0,1-.09-.21V94.76a.29.29,0,0,1,.3-.3.28.28,0,0,1,.3.3v4.87a.25.25,0,0,1-.08.21A.27.27,0,0,1,85.2,99.93Z" transform="translate(-0.66 -1.37)"/><path class="cls-1" d="M87.8,99.93a.29.29,0,0,1-.21-.09.26.26,0,0,1-.09-.21V94.76a.27.27,0,0,1,.09-.22.28.28,0,0,1,.21-.08.28.28,0,0,1,.3.3v4.87a.25.25,0,0,1-.08.21A.27.27,0,0,1,87.8,99.93Zm4.43,0a.29.29,0,0,1-.21-.09.26.26,0,0,1-.09-.21V96.94a2.12,2.12,0,0,0-.25-1.09A1.66,1.66,0,0,0,91,95.2,2.25,2.25,0,0,0,90,95a2.34,2.34,0,0,0-1,.2,1.81,1.81,0,0,0-.68.57,1.44,1.44,0,0,0-.25.81h-.5A2.26,2.26,0,0,1,88,95.45a2.39,2.39,0,0,1,.86-.78A2.46,2.46,0,0,1,90,94.39a2.89,2.89,0,0,1,1.3.29,2.26,2.26,0,0,1,.9.86,2.76,2.76,0,0,1,.33,1.4v2.69a.25.25,0,0,1-.08.21A.29.29,0,0,1,92.23,99.93Z" transform="translate(-0.66 -1.37)"/><path class="cls-1" d="M93.81,95.2a.28.28,0,0,1-.2-.08.25.25,0,0,1-.07-.19.24.24,0,0,1,.27-.27h2.71a.25.25,0,0,1,.19.07.28.28,0,0,1,.08.2.27.27,0,0,1-.27.27Zm2.67,4.73a2,2,0,0,1-1-.26,1.69,1.69,0,0,1-.67-.68,2,2,0,0,1-.24-1V93a.3.3,0,0,1,.08-.23.34.34,0,0,1,.44,0,.3.3,0,0,1,.09.23v5a1.27,1.27,0,0,0,.36.94,1.23,1.23,0,0,0,.93.37h.22a.33.33,0,0,1,.22.08.32.32,0,0,1,.09.23.26.26,0,0,1-.09.21.29.29,0,0,1-.22.09Z" transform="translate(-0.66 -1.37)"/><path class="cls-1" d="M100.69,100a2.74,2.74,0,0,1-1.41-.36,2.45,2.45,0,0,1-1-1A2.85,2.85,0,0,1,98,97.2a3.07,3.07,0,0,1,.33-1.45,2.53,2.53,0,0,1,.91-1,2.45,2.45,0,0,1,1.33-.36,2.39,2.39,0,0,1,2.2,1.29,3,3,0,0,1,.32,1.4.28.28,0,0,1-.08.2.32.32,0,0,1-.21.08h-4.4v-.52h4.56l-.44.33a2.49,2.49,0,0,0-.22-1.15,1.83,1.83,0,0,0-.69-.79,1.88,1.88,0,0,0-1-.28,1.86,1.86,0,0,0-1,.28,1.92,1.92,0,0,0-.7.79,2.51,2.51,0,0,0-.25,1.16,2.41,2.41,0,0,0,.27,1.15,2,2,0,0,0,.75.78,2.1,2.1,0,0,0,1.1.29,2.38,2.38,0,0,0,.78-.14,1.73,1.73,0,0,0,.63-.35.31.31,0,0,1,.19-.09.29.29,0,0,1,.2.07.27.27,0,0,1,.11.2.28.28,0,0,1-.09.2,2.69,2.69,0,0,1-.84.48A2.74,2.74,0,0,1,100.69,100Z" transform="translate(-0.66 -1.37)"/><path class="cls-1" d="M105.46,99.93a1.14,1.14,0,0,1-.68-.21,1.42,1.42,0,0,1-.46-.58,2.1,2.1,0,0,1-.16-.86V92.42a.29.29,0,0,1,.08-.22.34.34,0,0,1,.44,0,.29.29,0,0,1,.08.22v5.86A1.3,1.3,0,0,0,105,99a.59.59,0,0,0,.51.3h.25a.25.25,0,0,1,.18.08.36.36,0,0,1,.07.22.29.29,0,0,1-.08.21.29.29,0,0,1-.22.09Z" transform="translate(-0.66 -1.37)"/><path class="cls-1" d="M107.55,93.31a.45.45,0,0,1-.33-.14.44.44,0,0,1-.13-.33.44.44,0,0,1,.14-.35.57.57,0,0,1,.33-.11.51.51,0,0,1,.31.11.41.41,0,0,1,.15.35.48.48,0,0,1-.47.47Zm0,6.62a.29.29,0,0,1-.22-.09.29.29,0,0,1-.08-.21V94.76a.29.29,0,0,1,.08-.22.34.34,0,0,1,.44,0,.29.29,0,0,1,.08.22v4.87a.29.29,0,0,1-.08.21A.29.29,0,0,1,107.56,99.93Z" transform="translate(-0.66 -1.37)"/><path class="cls-1" d="M112.36,100a2.86,2.86,0,0,1-1.45-.36,2.61,2.61,0,0,1-1-1,2.85,2.85,0,0,1-.36-1.44,2.77,2.77,0,0,1,.37-1.45,2.64,2.64,0,0,1,1-1,2.87,2.87,0,0,1,1.43-.36,2.8,2.8,0,0,1,1.44.36,2.61,2.61,0,0,1,1,1,2.86,2.86,0,0,1,.36,1.45l-.35.4a2.4,2.4,0,0,1-.31,1.24,2.17,2.17,0,0,1-.86.84A2.52,2.52,0,0,1,112.36,100Zm0,2a2.87,2.87,0,0,1-2.38-1.1.31.31,0,0,1-.08-.21.23.23,0,0,1,.1-.19.32.32,0,0,1,.44.08,2.42,2.42,0,0,0,.79.61,2.38,2.38,0,0,0,1.13.25,2,2,0,0,0,1.1-.3,2.13,2.13,0,0,0,.77-.83,2.41,2.41,0,0,0,.28-1.17V97.57l.27-.37h.33v2a3,3,0,0,1-.36,1.46,2.74,2.74,0,0,1-1,1A2.66,2.66,0,0,1,112.4,102Zm0-2.59a2.21,2.21,0,0,0,1.13-.29,2,2,0,0,0,.78-.79,2.28,2.28,0,0,0,.28-1.15,2.36,2.36,0,0,0-.28-1.17,2.11,2.11,0,0,0-.78-.79,2.2,2.2,0,0,0-1.13-.28,2.24,2.24,0,0,0-1.14.28,2,2,0,0,0-.78.79,2.36,2.36,0,0,0-.28,1.17,2.28,2.28,0,0,0,.28,1.15,1.91,1.91,0,0,0,.78.79A2.25,2.25,0,0,0,112.36,99.43Z" transform="translate(-0.66 -1.37)"/><path class="cls-1" d="M119.07,100a2.7,2.7,0,0,1-1.4-.36,2.41,2.41,0,0,1-1-1,3,3,0,0,1-.35-1.44,3.07,3.07,0,0,1,.33-1.45,2.53,2.53,0,0,1,.91-1,2.66,2.66,0,0,1,2.64,0,2.4,2.4,0,0,1,.89,1,3,3,0,0,1,.32,1.4.28.28,0,0,1-.08.2.29.29,0,0,1-.21.08h-4.4v-.52h4.56l-.44.33a2.49,2.49,0,0,0-.22-1.15,1.88,1.88,0,0,0-.68-.79,1.92,1.92,0,0,0-1-.28,1.86,1.86,0,0,0-1,.28,2,2,0,0,0-.7.79A2.51,2.51,0,0,0,117,97.2a2.41,2.41,0,0,0,.27,1.15,2,2,0,0,0,.75.78,2.12,2.12,0,0,0,1.1.29,2.48,2.48,0,0,0,.79-.14,1.6,1.6,0,0,0,.62-.35.34.34,0,0,1,.2-.09.26.26,0,0,1,.19.07.33.33,0,0,1,.12.2.26.26,0,0,1-.1.2,2.63,2.63,0,0,1-.83.48A2.84,2.84,0,0,1,119.07,100Z" transform="translate(-0.66 -1.37)"/><path class="cls-1" d="M123,99.93a.31.31,0,0,1-.3-.3V94.76a.27.27,0,0,1,.09-.22.25.25,0,0,1,.21-.08.27.27,0,0,1,.22.08.29.29,0,0,1,.08.22v4.87a.29.29,0,0,1-.08.21A.28.28,0,0,1,123,99.93Zm4.43,0a.27.27,0,0,1-.21-.09.26.26,0,0,1-.09-.21V96.94a2.12,2.12,0,0,0-.25-1.09,1.66,1.66,0,0,0-.69-.65,2.25,2.25,0,0,0-1-.21,2.34,2.34,0,0,0-1,.2,1.74,1.74,0,0,0-.68.57,1.36,1.36,0,0,0-.25.81h-.5a2.26,2.26,0,0,1,.37-1.12,2.38,2.38,0,0,1,2-1.06,2.92,2.92,0,0,1,1.3.29,2.26,2.26,0,0,1,.9.86,2.76,2.76,0,0,1,.33,1.4v2.69a.29.29,0,0,1-.08.21A.29.29,0,0,1,127.47,99.93Z" transform="translate(-0.66 -1.37)"/><path class="cls-1" d="M129,95.2a.27.27,0,0,1-.27-.27.28.28,0,0,1,.08-.2.25.25,0,0,1,.19-.07h2.71a.24.24,0,0,1,.27.27.25.25,0,0,1-.07.19.28.28,0,0,1-.2.08Zm2.67,4.73a2,2,0,0,1-1-.26,1.75,1.75,0,0,1-.67-.68,2,2,0,0,1-.24-1V93a.29.29,0,0,1,.3-.31.28.28,0,0,1,.31.31v5a1.27,1.27,0,0,0,.36.94,1.23,1.23,0,0,0,.93.37h.22a.34.34,0,0,1,.23.08.36.36,0,0,1,.08.23.29.29,0,0,1-.08.21.3.3,0,0,1-.23.09Z" transform="translate(-0.66 -1.37)"/><path class="cls-1" d="M135.92,100a2.73,2.73,0,0,1-1.4-.36,2.54,2.54,0,0,1-1-1,3,3,0,0,1-.35-1.44,3.07,3.07,0,0,1,.33-1.45,2.6,2.6,0,0,1,.91-1,2.66,2.66,0,0,1,2.64,0,2.4,2.4,0,0,1,.89,1,2.89,2.89,0,0,1,.32,1.4.24.24,0,0,1-.08.2.29.29,0,0,1-.21.08h-4.4v-.52h4.56l-.44.33A2.37,2.37,0,0,0,137.5,96a1.81,1.81,0,0,0-.68-.79,1.92,1.92,0,0,0-1-.28,1.83,1.83,0,0,0-1,.28,1.92,1.92,0,0,0-.7.79,2.51,2.51,0,0,0-.26,1.16,2.41,2.41,0,0,0,.27,1.15,2,2,0,0,0,.75.78,2.12,2.12,0,0,0,1.1.29,2.44,2.44,0,0,0,.79-.14,1.6,1.6,0,0,0,.62-.35.37.37,0,0,1,.2-.09.25.25,0,0,1,.19.07.24.24,0,0,1,0,.4,2.63,2.63,0,0,1-.83.48A2.75,2.75,0,0,1,135.92,100Z" transform="translate(-0.66 -1.37)"/><path class="cls-1" d="M139.7,100.09a.49.49,0,0,1-.36-.15.51.51,0,0,1,0-.72.53.53,0,0,1,.72,0,.53.53,0,0,1,0,.72A.49.49,0,0,1,139.7,100.09Z" transform="translate(-0.66 -1.37)"/><path class="cls-2" d="M2,66.52a1.27,1.27,0,0,1-1-.38,1.45,1.45,0,0,1,0-1.92,1.31,1.31,0,0,1,1-.36H18.32a1.3,1.3,0,0,1,1,.36,1.32,1.32,0,0,1,.36,1,1.29,1.29,0,0,1-.37,1,1.27,1.27,0,0,1-1,.38Zm8,20.92A1.43,1.43,0,0,1,8.62,86l.1-22.13h2.87L11.48,86a1.42,1.42,0,0,1-.41,1A1.36,1.36,0,0,1,10,87.44Z" transform="translate(-0.66 -1.37)"/><path class="cls-2" d="M25.65,87.56a8.56,8.56,0,0,1-4.29-1.07,7.74,7.74,0,0,1-2.94-3,8.55,8.55,0,0,1-1.05-4.33,8.77,8.77,0,0,1,1.09-4.37,7.79,7.79,0,0,1,3-3,8.54,8.54,0,0,1,4.31-1.08A8.4,8.4,0,0,1,30,71.88a7.85,7.85,0,0,1,2.94,3,9.34,9.34,0,0,1,0,8.7,7.79,7.79,0,0,1-3,3A8.6,8.6,0,0,1,25.65,87.56Zm0-2.51a5.62,5.62,0,0,0,2.9-.75,5.45,5.45,0,0,0,2-2.07,6.74,6.74,0,0,0,0-6.08,5.38,5.38,0,0,0-2-2.09,5.56,5.56,0,0,0-2.89-.75,5.63,5.63,0,0,0-2.91.75,5.51,5.51,0,0,0-2,2.09,6.4,6.4,0,0,0-.74,3,6.33,6.33,0,0,0,.71,3,5.33,5.33,0,0,0,2,2.07A5.59,5.59,0,0,0,25.67,85.05Z" transform="translate(-0.66 -1.37)"/><path class="cls-2" d="M46.05,87.56a8.23,8.23,0,0,1-4.23-1.1,8.12,8.12,0,0,1-3-3,8.51,8.51,0,0,1-1.08-4.28,8.89,8.89,0,0,1,1.05-4.28,7.92,7.92,0,0,1,2.82-3,7.46,7.46,0,0,1,4-1.11,7.6,7.6,0,0,1,3.42.77,7.15,7.15,0,0,1,2.54,2.1l0-8.39a1.38,1.38,0,0,1,.41-1,1.43,1.43,0,0,1,1-.39,1.38,1.38,0,0,1,1,.39,1.4,1.4,0,0,1,.39,1L54.42,79.2a8.4,8.4,0,0,1-1.12,4.28,8,8,0,0,1-3,3A8.29,8.29,0,0,1,46.05,87.56Zm0-2.51A5.36,5.36,0,0,0,49,84.28a5.57,5.57,0,0,0,2-2.11,6.07,6.07,0,0,0,.75-3,6,6,0,0,0-.72-3,5.65,5.65,0,0,0-2-2.08,5.71,5.71,0,0,0-5.73,0,5.65,5.65,0,0,0-2,2.08,6.51,6.51,0,0,0,0,6,5.4,5.4,0,0,0,2,2.11A5.34,5.34,0,0,0,46.06,85.05Z" transform="translate(-0.66 -1.37)"/><path class="cls-2" d="M67.29,87.56A8.54,8.54,0,0,1,63,86.49a7.7,7.7,0,0,1-3-3,9.34,9.34,0,0,1,.05-8.7,7.79,7.79,0,0,1,3-3,8.5,8.5,0,0,1,4.3-1.08,8.38,8.38,0,0,1,4.28,1.08,7.71,7.71,0,0,1,2.94,3,8.56,8.56,0,0,1,1.07,4.37,8.67,8.67,0,0,1-1.09,4.33,7.86,7.86,0,0,1-3,3A8.6,8.6,0,0,1,67.29,87.56Zm0-2.51a5.57,5.57,0,0,0,2.9-.75,5.31,5.31,0,0,0,2-2.07,6.74,6.74,0,0,0,0-6.08,5.24,5.24,0,0,0-2-2.09,5.53,5.53,0,0,0-2.89-.75,5.59,5.59,0,0,0-2.9.75,5.43,5.43,0,0,0-2,2.09,6.29,6.29,0,0,0-.74,3,6.11,6.11,0,0,0,.71,3,5.33,5.33,0,0,0,2,2.07A5.56,5.56,0,0,0,67.3,85.05Z" transform="translate(-0.66 -1.37)"/><path class="cls-2" d="M91.06,87.74a11.4,11.4,0,0,1-4.56-.92,11.17,11.17,0,0,1-3.7-2.58,12.37,12.37,0,0,1-2.47-3.87,12.22,12.22,0,0,1-.88-4.74,12.4,12.4,0,0,1,.91-4.69,12.15,12.15,0,0,1,2.51-3.85,11.78,11.78,0,0,1,3.72-2.6,11.28,11.28,0,0,1,4.59-.93,10.54,10.54,0,0,1,7.38,2.62,1.12,1.12,0,0,1,.35.41A.89.89,0,0,1,99,67a4.3,4.3,0,0,1-.08.45,1,1,0,0,1-.38.74,1.45,1.45,0,0,1-.85.32,1.37,1.37,0,0,1-1-.33,7.59,7.59,0,0,0-5.57-2,8.13,8.13,0,0,0-3.46.76,9.17,9.17,0,0,0-2.84,2,9.78,9.78,0,0,0-2.65,6.64,9.84,9.84,0,0,0,.68,3.69,9.73,9.73,0,0,0,1.9,3,8.73,8.73,0,0,0,2.83,2,8.69,8.69,0,0,0,6.45.19,11.13,11.13,0,0,0,2.71-1.49,1.38,1.38,0,0,1,1-.32,1.26,1.26,0,0,1,.82.4,1.28,1.28,0,0,1,.35,1,1.42,1.42,0,0,1-.11.55,1.21,1.21,0,0,1-.35.47,10.71,10.71,0,0,1-3.48,2A12.26,12.26,0,0,1,91.06,87.74Z" transform="translate(-0.66 -1.37)"/><path class="cls-2" d="M109.38,87.56a7.49,7.49,0,0,1-4-1.09,7.66,7.66,0,0,1-2.79-3,8.75,8.75,0,0,1-1-4.28,8.36,8.36,0,0,1,1.12-4.31,8.28,8.28,0,0,1,7.24-4.09,8.14,8.14,0,0,1,4.25,1.11,8,8,0,0,1,3,3,8.34,8.34,0,0,1,1.08,4.29l-1.09.24a8.35,8.35,0,0,1-1,4.13,7.83,7.83,0,0,1-2.76,2.92A7.45,7.45,0,0,1,109.38,87.56Zm.49-2.51a5.36,5.36,0,0,0,2.89-.77,5.61,5.61,0,0,0,2-2.1,6.41,6.41,0,0,0,0-6,5.56,5.56,0,0,0-2-2.1,5.39,5.39,0,0,0-2.88-.77,5.52,5.52,0,0,0-4.88,2.87,6.12,6.12,0,0,0-.76,3,6,6,0,0,0,.73,3,5.46,5.46,0,0,0,4.85,2.87Zm6.9,2.42a1.38,1.38,0,0,1-1.41-1.42l0-4.8.59-2.93,2.26.88,0,6.85a1.41,1.41,0,0,1-.4,1A1.38,1.38,0,0,1,116.77,87.47Z" transform="translate(-0.66 -1.37)"/><path class="cls-2" d="M128.69,87.56a10.94,10.94,0,0,1-3.77-.64,7.1,7.1,0,0,1-2.8-1.69,1.19,1.19,0,0,1-.34-1,1.35,1.35,0,0,1,.56-.92,1.51,1.51,0,0,1,1.09-.36,1.34,1.34,0,0,1,.9.48,4.8,4.8,0,0,0,1.75,1.15,6.56,6.56,0,0,0,2.56.48,5.25,5.25,0,0,0,2.86-.63,1.86,1.86,0,0,0,.06-3.25,8.54,8.54,0,0,0-3.29-1.1,9.29,9.29,0,0,1-4.42-1.78,3.75,3.75,0,0,1-1.38-2.93,3.81,3.81,0,0,1,.89-2.55,5.35,5.35,0,0,1,2.29-1.51,9.45,9.45,0,0,1,6.48.15,6,6,0,0,1,2.42,1.8,1.33,1.33,0,0,1,.33.93,1,1,0,0,1-.52.82,1.3,1.3,0,0,1-1,.2,2,2,0,0,1-1-.5,4.13,4.13,0,0,0-1.65-1.1,6.16,6.16,0,0,0-2.11-.32,4.86,4.86,0,0,0-2.39.53,1.63,1.63,0,0,0-.94,1.46,1.82,1.82,0,0,0,.31,1,2.52,2.52,0,0,0,1.17.83,12.07,12.07,0,0,0,2.52.67,12.41,12.41,0,0,1,3.57,1.13,4.74,4.74,0,0,1,1.86,1.63,4,4,0,0,1,.55,2.1,4.35,4.35,0,0,1-.78,2.52,5.24,5.24,0,0,1-2.21,1.73A8.58,8.58,0,0,1,128.69,87.56Z" transform="translate(-0.66 -1.37)"/><path class="cls-2" d="M140.55,87.47a1.35,1.35,0,0,1-1.41-1.42l.06-13.71a1.43,1.43,0,0,1,.4-1,1.41,1.41,0,0,1,1-.4A1.35,1.35,0,0,1,142,72.34L142,86.05a1.37,1.37,0,0,1-.4,1A1.36,1.36,0,0,1,140.55,87.47Zm0-6.28a1.38,1.38,0,0,1-1-.41,1.36,1.36,0,0,1-.38-1l.07-14.49a1.4,1.4,0,0,1,.39-1,1.42,1.42,0,0,1,1-.39,1.4,1.4,0,0,1,1,.39,1.36,1.36,0,0,1,.38,1L142,79.77a1.37,1.37,0,0,1-1.42,1.42Zm12.55,6.28a1.38,1.38,0,0,1-1.41-1.42l0-7.58a5.64,5.64,0,0,0-.63-2.88,4.06,4.06,0,0,0-1.77-1.69,5.69,5.69,0,0,0-2.55-.56,5.36,5.36,0,0,0-2.43.54,4.51,4.51,0,0,0-1.71,1.45,3.55,3.55,0,0,0-.65,2.06h-1.84a6.51,6.51,0,0,1,1-3.4,6.64,6.64,0,0,1,2.54-2.36,7.54,7.54,0,0,1,3.6-.86,7.79,7.79,0,0,1,3.73.89,6.4,6.4,0,0,1,2.61,2.62,8.35,8.35,0,0,1,1,4.19l0,7.58a1.4,1.4,0,0,1-1.42,1.42Z" transform="translate(-0.66 -1.37)"/><rect class="cls-3" x="39.46" y="11.68" width="12.84" height="5.19" rx="2.6"/><rect class="cls-4" x="37.85" y="20.99" width="10.92" height="5.19" rx="2.6"/><path class="cls-5" d="M98.53,23.68a22.32,22.32,0,0,0-33.93-19H49.37a2.6,2.6,0,0,0,0,5.19h9.37a22.3,22.3,0,0,0-3.35,21.85h-8.7a2.6,2.6,0,0,0,0,5.2H57.43a2.46,2.46,0,0,0,.72-.11,22.31,22.31,0,0,0,13.07,8.66l2.11,3.66L75.6,53a1.27,1.27,0,0,0,2.19,0l2.28-3.94,2.27-3.94h0A22.31,22.31,0,0,0,98.53,23.68Zm-22.31,18a18,18,0,1,1,18-18A18.06,18.06,0,0,1,76.22,41.72Z" transform="translate(-0.66 -1.37)"/><rect class="cls-6" x="47.99" y="38.72" width="9.71" height="5.19" rx="2.6"/><rect class="cls-7" x="29.94" y="20.99" width="5.19" height="5.19" rx="2.6"/><path class="cls-2" d="M78.86,21.9h-1V15.69h1A2.34,2.34,0,0,1,81.2,18a1.48,1.48,0,1,0,3,0,5.3,5.3,0,0,0-5.29-5.29h-1v-.67a1.48,1.48,0,0,0-3,0v.67h-1A5.3,5.3,0,0,0,68.61,18v1.53a5.29,5.29,0,0,0,5.29,5.29h1v6.2h-1a2.34,2.34,0,0,1-2.34-2.34,1.48,1.48,0,1,0-3,0A5.29,5.29,0,0,0,73.9,34h1v.39a1.48,1.48,0,0,0,3,0V34h1a5.29,5.29,0,0,0,5.29-5.29V27.19A5.29,5.29,0,0,0,78.86,21.9Zm-5,0a2.34,2.34,0,0,1-2.34-2.34V18a2.34,2.34,0,0,1,2.34-2.34h1V21.9Zm7.3,6.81a2.34,2.34,0,0,1-2.34,2.34h-1v-6.2h1a2.34,2.34,0,0,1,2.34,2.34Z" transform="translate(-0.66 -1.37)"/><path class="cls-8" d="M95.32,112.81h0a2.39,2.39,0,0,1,1,.16,1.72,1.72,0,0,1,.37.22,15.5,15.5,0,0,1,3.27,3.12l-1.75-3.52-.13-.26-1.33-2.67a1.76,1.76,0,0,0-.64-.67,1.54,1.54,0,0,0-.72-.19c-.69,0-1.17.73-1.32,1a10.38,10.38,0,0,0-.53,4A1.91,1.91,0,0,1,95.32,112.81Z" transform="translate(-0.66 -1.37)"/><path class="cls-8" d="M91.2,119.47h7.19a7.09,7.09,0,0,1-3.21-1.79c-.12-.12-.24-.24-.34-.36a8.56,8.56,0,0,1-1.46-2.13.43.43,0,0,1,0,0,2.26,2.26,0,0,1-.12-.56,11.25,11.25,0,0,1,.1-3.23l-3.22,6.5h0a1.06,1.06,0,0,0-.13.5A1.15,1.15,0,0,0,91.2,119.47Z" transform="translate(-0.66 -1.37)"/><path class="cls-8" d="M97.08,113.87a1.63,1.63,0,0,1,.15.7,5.44,5.44,0,0,1-1.41,2.48l-.4.46a6.57,6.57,0,0,0,4.21,1.85,1.91,1.91,0,0,0,1-.24.69.69,0,0,0,.24-.57,1.16,1.16,0,0,0-.14-.48h0A13.65,13.65,0,0,0,97.08,113.87Z" transform="translate(-0.66 -1.37)"/><path class="cls-8" d="M110.71,119.34l-2.16-2.65a3.36,3.36,0,0,0,.91-.47,2.33,2.33,0,0,0,.55-.59,2.05,2.05,0,0,0,.27-.67,3.74,3.74,0,0,0,.07-.75,2.81,2.81,0,0,0-.18-1,2.49,2.49,0,0,0-.55-.85,2.52,2.52,0,0,0-.91-.59,3.19,3.19,0,0,0-1.24-.22h-3.69v7.93h1.74v-2.63h1.25l2,2.63h1.94a.05.05,0,0,0,0,0S110.71,119.34,110.71,119.34Zm-2.7-4.08a1.13,1.13,0,0,1-.51.1h-2v-2.3h2a1.25,1.25,0,0,1,.53.11,1.45,1.45,0,0,1,.36.28,1.47,1.47,0,0,1,.21.39,1.23,1.23,0,0,1,.07.42,1.23,1.23,0,0,1-.27.74A1.11,1.11,0,0,1,108,115.26Z" transform="translate(-0.66 -1.37)"/><polygon class="cls-8" points="130.74 111.75 133.11 111.75 133.11 118.11 134.83 118.11 134.83 111.75 137.2 111.75 137.2 110.18 130.74 110.18 130.74 111.75"/><path class="cls-8" d="M128.87,112l-.06-.12h0a1,1,0,0,0-.89-.57,1.09,1.09,0,0,0-1,.82l-.5,1.13h0l-2.74,6.2h1.83l.55-1.32h3.68l.17.41h0l.38.91h1.87l-3.3-7.46Zm-2.11,4.53,1.17-2.75,1.14,2.75Z" transform="translate(-0.66 -1.37)"/><path class="cls-8" d="M146.44,111.37h-.2a.91.91,0,0,0-.84.47l-2.26,3.69-2.25-3.68a1,1,0,0,0-.85-.48h-.21a.92.92,0,0,0-.93.93v7.18h1.83v-4.63l1.61,2.49h0l.56.87h.41l.49-.75.09-.12,1.63-2.52v4.66h1.86V112.3A.93.93,0,0,0,146.44,111.37Z" transform="translate(-0.66 -1.37)"/><text class="cls-9" transform="translate(94.53 128.56) scale(1.07 1)">A<tspan class="cls-10" x="5.51" y="0">R</tspan><tspan x="10.38" y="0">GENTINA</tspan></text><path class="cls-8" d="M116.15,114.48a2.24,2.24,0,0,0-.94-.65,3.42,3.42,0,0,0-1.27-.22,3.25,3.25,0,0,0-1.2.21,2.53,2.53,0,0,0-1.5,1.5,3.15,3.15,0,0,0-.21,1.16,3.63,3.63,0,0,0,.2,1.22,2.54,2.54,0,0,0,.59.94,2.93,2.93,0,0,0,1,.62,3.8,3.8,0,0,0,1.32.22,3.25,3.25,0,0,0,1.1-.15,2.38,2.38,0,0,0,1.18-.8l-.82-.89a2.09,2.09,0,0,1-.7.35,2.9,2.9,0,0,1-.73.09H114a1.57,1.57,0,0,1-.49-.08,1.36,1.36,0,0,1-.45-.23,1.48,1.48,0,0,1-.25-.25,1.61,1.61,0,0,1-.26-.46h4.17a5.48,5.48,0,0,0-.08-1.5A2.46,2.46,0,0,0,116.15,114.48Zm-3.53,1.39a2,2,0,0,1,.18-.32,1.34,1.34,0,0,1,.31-.32,1,1,0,0,1,.23-.12,1.47,1.47,0,0,1,.69-.17,1.54,1.54,0,0,1,1.41.93Z" transform="translate(-0.66 -1.37)"/><path class="cls-8" d="M121.86,113.91a3,3,0,0,0-1.4-.34,3,3,0,1,0,3,3.17h0v-5.32h-1.61Zm-1.4,4.09a1.48,1.48,0,1,1,1.46-1.48A1.47,1.47,0,0,1,120.46,118Z" transform="translate(-0.66 -1.37)"/><text class="cls-11" transform="translate(0.52 118.36)"><tspan class="cls-12">A</tspan><tspan x="6.6" y="0">ge</tspan><tspan class="cls-13" x="18.26" y="0">n</tspan><tspan class="cls-14" x="24.32" y="0">t</tspan><tspan x="27.9" y="0">e oficial de</tspan><tspan class="cls-15"><tspan x="18.52" y="10">O</tspan><tspan class="cls-16" x="26.15" y="10">c</tspan><tspan class="cls-17" x="31.22" y="10">tagon</tspan></tspan></text></svg>